<?xml version="1.0" standalone="no"?>
<!DOCTYPE svg PUBLIC "-//W3C//DTD SVG 20010904//EN"
 "http://www.w3.org/TR/2001/REC-SVG-20010904/DTD/svg10.dtd">
<svg version="1.0" xmlns="http://www.w3.org/2000/svg"
 width="64.000000pt" height="64.000000pt" viewBox="0 0 64.000000 64.000000"
 preserveAspectRatio="xMidYMid meet">

<g transform="translate(0.000000,64.000000) scale(0.100000,-0.100000)"
fill="#000000" stroke="none">
<path d="M110 515 c-26 -31 13 -82 44 -56 19 16 21 42 4 59 -16 16 -33 15 -48
-3z"/>
<path d="M190 510 c0 -19 7 -20 175 -20 l175 0 0 -90 c0 -83 -1 -90 -20 -90
-11 0 -20 7 -20 15 0 24 -56 20 -63 -5 -5 -18 -14 -20 -111 -20 -99 0 -106 -1
-106 -20 0 -19 7 -20 180 -20 l180 0 0 135 0 135 -195 0 c-188 0 -195 -1 -195
-20z"/>
<path d="M287 431 c-31 -15 -47 -16 -92 -8 -33 5 -70 5 -92 0 -36 -8 -39 -12
-52 -66 -12 -53 -12 -59 4 -77 15 -16 18 -35 16 -100 -2 -79 -2 -80 23 -80 22
0 25 5 31 48 3 26 7 54 9 62 1 8 6 -13 10 -47 7 -58 10 -63 32 -63 l24 0 0
135 0 135 35 0 c56 0 142 66 99 76 -5 1 -26 -6 -47 -15z"/>
<path d="M254 226 c-3 -8 -4 -25 -2 -38 2 -17 9 -23 28 -23 22 0 25 4 25 35 0
29 -4 36 -23 38 -13 2 -24 -3 -28 -12z"/>
<path d="M374 226 c-3 -8 -4 -25 -2 -38 2 -17 9 -23 28 -23 22 0 25 4 25 35 0
29 -4 36 -23 38 -13 2 -24 -3 -28 -12z"/>
<path d="M494 226 c-3 -8 -4 -25 -2 -38 2 -17 9 -23 28 -23 22 0 25 4 25 35 0
29 -4 36 -23 38 -13 2 -24 -3 -28 -12z"/>
<path d="M238 139 c-10 -5 -18 -17 -18 -24 0 -13 30 -15 181 -15 166 0 180 1
177 17 -5 26 -52 40 -88 26 -22 -8 -38 -8 -60 0 -23 9 -38 8 -61 0 -21 -8 -38
-9 -50 -3 -23 13 -59 12 -81 -1z"/>
</g>
</svg>
