<?xml version="1.0" encoding="UTF-8"?>
<svg version="1.1" xmlns="http://www.w3.org/2000/svg" width="400" height="300">
<path d="M0 0 C19.33621547 16.46647117 31.77485185 37.40356029 35.45751953 62.82910156 C35.74711843 67.02828557 35.70751953 71.24494323 35.70751953 75.45410156 C19.20751953 75.45410156 2.70751953 75.45410156 -14.29248047 75.45410156 C-14.95248047 71.16410156 -15.61248047 66.87410156 -16.29248047 62.45410156 C-20.15301289 50.73462815 -27.14448368 40.91452257 -38.17529297 34.87597656 C-49.81527883 29.47502312 -63.34218911 28.23539612 -75.79248047 31.95410156 C-88.66599619 37.07465964 -96.808496 45.9658614 -102.26123047 58.42675781 C-103.76696491 62.84700097 -104.3888751 67.27345589 -104.93310547 71.89941406 C-105.29248047 74.45410156 -105.29248047 74.45410156 -106.29248047 75.45410156 C-107.82731017 75.54729606 -109.36640129 75.57155957 -110.90405273 75.56762695 C-111.88499405 75.56755142 -112.86593536 75.56747589 -113.87660217 75.56739807 C-114.94325607 75.56223679 -116.00990997 75.5570755 -117.10888672 75.55175781 C-118.7381736 75.54963539 -118.7381736 75.54963539 -120.40037537 75.54747009 C-123.88527122 75.54185204 -127.37010389 75.52929649 -130.85498047 75.51660156 C-133.21109934 75.51158889 -135.5672192 75.50702558 -137.92333984 75.50292969 C-143.71307511 75.49187675 -149.50277328 75.47512107 -155.29248047 75.45410156 C-155.3055211 73.70127318 -155.31480298 71.94841659 -155.32250977 70.19555664 C-155.32808395 69.21943924 -155.33365814 68.24332184 -155.33940125 67.23762512 C-155.00049365 47.13230429 -145.11077496 27.40433692 -132.29248047 12.45410156 C-131.84775391 11.865 -131.40302734 11.27589844 -130.94482422 10.66894531 C-117.93478681 -6.16055262 -94.47981035 -17.39575417 -73.75732422 -20.26074219 C-46.89005221 -22.47191564 -21.26696967 -17.38386828 0 0 Z " fill="#0f38b7" transform="translate(293.29248046875,71.5458984375)"/>
<path d="M0 0 C0.21914062 1.17175781 0.43828125 2.34351563 0.6640625 3.55078125 C3.420009 17.52407023 7.37433068 28.87695568 19 38 C30.9842825 45.35793893 42.8415151 47.94060607 56.875 45.5 C68.11045421 42.41025009 78.1540154 35.99616097 84.3125 26 C85.22846531 24.34431202 86.12652643 22.67849309 87 21 C87.5775 19.906875 88.155 18.81375 88.75 17.6875 C90.31392716 13.07391486 90.89536552 8.52256262 91.47265625 3.6953125 C91.64667969 2.80585938 91.82070312 1.91640625 92 1 C94.43915121 -0.2195756 95.91115147 -0.08586292 98.63330078 -0.02172852 C99.59414581 -0.00163223 100.55499084 0.01846405 101.54495239 0.03916931 C103.10438065 0.07972191 103.10438065 0.07972191 104.6953125 0.12109375 C105.75789276 0.14470474 106.82047302 0.16831573 107.91525269 0.19264221 C111.31863397 0.26939012 114.72179404 0.35336665 118.125 0.4375 C120.42837449 0.49070954 122.73175987 0.54345 125.03515625 0.59570312 C130.69024188 0.72502028 136.34516242 0.86027721 142 1 C141.87793045 3.50583758 141.7462955 6.01058956 141.609375 8.515625 C141.57634277 9.21381348 141.54331055 9.91200195 141.50927734 10.63134766 C140.15049443 34.61802554 127.25958105 56.56115511 110.12109375 72.79296875 C98.32270132 83.14666007 85.0283136 89.78994052 70 94 C68.85917969 94.34998047 68.85917969 94.34998047 67.6953125 94.70703125 C43.52858653 101.242391 18.30359097 94.6982371 -3 83 C-3.97839844 82.47792969 -4.95679688 81.95585937 -5.96484375 81.41796875 C-27.06902284 69.17692508 -40.45731407 46.91447607 -47 24 C-48.44724817 18.17830114 -49.0966148 12.6581854 -49.046875 6.65625 C-49.04010742 5.59212891 -49.03333984 4.52800781 -49.02636719 3.43164062 C-49.01766602 2.62919922 -49.00896484 1.82675781 -49 1 C-42.18237607 0.85743973 -35.3647488 0.71503992 -28.54711914 0.57275391 C-26.2258293 0.52428867 -23.90454023 0.47578612 -21.58325195 0.42724609 C-18.25472207 0.35765021 -14.92618945 0.28818666 -11.59765625 0.21875 C-10.55287613 0.19687622 -9.50809601 0.17500244 -8.43165588 0.15246582 C-7.47073532 0.13244507 -6.50981476 0.11242432 -5.51977539 0.09179688 C-4.66928116 0.07403198 -3.81878693 0.05626709 -2.94252014 0.03796387 C-1.96178574 0.01879677 -0.98092168 0 0 0 Z " fill="#0f38b7" transform="translate(120,146)"/>
</svg>
